# xmcd
#
# Track frame offsets: 
#        150
#        14590
#        29319
#        44656
#        59758
#        73831
#        88223
#        101052
#        116634
#        128605
#        141448
#        153693
#        165821
#        178241
#        191389
#        203990
#        234885
#        249443
#        263621
#        277277
#        289378
#        303372
#        315389
#
# Disc length: 4334 seconds
#
# Revision: 1
# Processed by: cddbd v1.5.2PL0 Copyright (c) Steve Scherf et al.
# Submitted via: ExactAudioCopyFreeDBPlugin 1.0
#
DISCID=5c10ec17
DTITLE=Teddy Wilson - Classic Jazz Archive
DYEAR=2004
DGENRE=Jazz
TTITLE0=Warmin' Up
TTITLE1=Blues in C Sharp Minor
TTITLE2=It's Like Reaching The Moon
TTITLE3=These Foolish Things (Remind Me Of You)
TTITLE4=Why Do I Lie To Myself About You
TTITLE5=Easy To Love
TTITLE6=Sailin'
TTITLE7=I Can't Give You Anything But Love
TTITLE8=I'll See You In My Dreams
TTITLE9=He Ain't Got Rhythm
TTITLE10=I'm Coming, Virginia
TTITLE11=I've Found A New Baby
TTITLE12=Coquette
TTITLE13=You Can't Stop Me From Dreamin'
TTITLE14=Ain't Misbehavin'
TTITLE15=Just A Mood (Blue Mood) (Part 1+2)
TTITLE16=Honeysuckle Rose
TTITLE17=Nice Work If You Can Get It
TTITLE18=Don*t Blame Me
TTITLE19=Between The Devil And The Deep Blue Sea
TTITLE20=Don*t Be That Way
TTITLE21=The Old Feeling
TTITLE22=My Blue Heaven
EXTD=
EXTT0=
EXTT1=
EXTT2=
EXTT3=
EXTT4=
EXTT5=
EXTT6=
EXTT7=
EXTT8=
EXTT9=
EXTT10=
EXTT11=
EXTT12=
EXTT13=
EXTT14=
EXTT15=
EXTT16=
EXTT17=
EXTT18=
EXTT19=
EXTT20=
EXTT21=
EXTT22=
PLAYORDER=
